<?xml version="1.0" encoding="UTF-8"?>
<svg xmlns="http://www.w3.org/2000/svg" 
     viewBox="0 0 1200 630" 
     width="1200" 
     height="630">
  <title>AEGIS Logo</title>
  <rect x="0" y="0" width="1200" height="630" fill="#16213E"/>
  <path d="M505.41 287.53L505.41 348.61L493.22 348.61L493.22 332.11L450.38 332.11L450.38 348.61L438.19 348.61L438.19 315Q438.19 307.64 440.72 301.45Q443.25 295.27 447.75 290.81Q452.25 286.36 458.39 283.88Q464.53 281.39 471.80 281.39L471.80 281.39L499.27 281.39Q500.53 281.39 501.66 281.86Q502.78 282.33 503.63 283.17Q504.47 284.02 504.94 285.14Q505.41 286.27 505.41 287.53L505.41 287.53ZM450.38 315L450.38 319.92L493.22 319.92L493.22 293.58L471.80 293.58Q471.23 293.58 469.43 293.74Q467.63 293.91 465.26 294.56Q462.89 295.22 460.27 296.58Q457.64 297.94 455.44 300.33Q453.23 302.72 451.80 306.30Q450.38 309.89 450.38 315L450.38 315ZM574.83 308.86L574.83 321.14L536.34 321.14L536.34 308.86L574.83 308.86ZM580.31 336.42L580.31 348.61L536.34 348.61Q533.81 348.61 530.81 347.72Q527.81 346.83 525.26 344.79Q522.70 342.75 520.99 339.49Q519.28 336.23 519.28 331.50L519.28 331.50L519.28 287.53Q519.28 286.27 519.75 285.14Q520.22 284.02 521.04 283.17Q521.86 282.33 522.98 281.86Q524.11 281.39 525.42 281.39L525.42 281.39L580.31 281.39L580.31 293.58L531.47 293.58L531.47 331.50Q531.47 333.89 532.73 335.16Q534 336.42 536.44 336.42L536.44 336.42L580.31 336.42ZM657.98 315L657.98 342.47Q657.98 343.78 657.52 344.91Q657.05 346.03 656.23 346.85Q655.41 347.67 654.28 348.14Q653.16 348.61 651.84 348.61L651.84 348.61L607.88 348.61Q606.19 348.61 604.24 348.21Q602.30 347.81 600.40 346.97Q598.50 346.13 596.77 344.79Q595.03 343.45 593.70 341.55Q592.36 339.66 591.56 337.15Q590.77 334.64 590.77 331.50L590.77 331.50L590.77 298.50Q590.77 296.81 591.16 294.87Q591.56 292.92 592.41 291.02Q593.25 289.13 594.61 287.39Q595.97 285.66 597.87 284.32Q599.77 282.98 602.25 282.19Q604.73 281.39 607.88 281.39L607.88 281.39L657.42 281.39L657.42 293.58L607.88 293.58Q605.48 293.58 604.22 294.84Q602.95 296.11 602.95 298.59L602.95 298.59L602.95 331.50Q602.95 333.84 604.24 335.13Q605.53 336.42 607.88 336.42L607.88 336.42L645.80 336.42L645.80 321.14L613.36 321.14L613.36 308.86L651.84 308.86Q653.16 308.86 654.28 309.35Q655.41 309.84 656.23 310.69Q657.05 311.53 657.52 312.63Q657.98 313.73 657.98 315L657.98 315ZM682.97 281.39L682.97 348.61L670.78 348.61L670.78 281.39L682.97 281.39ZM761.81 328.83L761.81 328.83Q761.81 332.44 760.90 335.32Q759.98 338.20 758.48 340.41Q756.98 342.61 754.97 344.16Q752.95 345.70 750.80 346.69Q748.64 347.67 746.41 348.14Q744.19 348.61 742.22 348.61L742.22 348.61L695.20 348.61L695.20 336.42L742.22 336.42Q745.73 336.42 747.68 334.36Q749.63 332.30 749.63 328.83L749.63 328.83Q749.63 327.14 749.11 325.73Q748.59 324.33 747.63 323.30Q746.67 322.27 745.29 321.70Q743.91 321.14 742.22 321.14L742.22 321.14L714.19 321.14Q711.23 321.14 707.81 320.09Q704.39 319.03 701.46 316.69Q698.53 314.34 696.59 310.55Q694.64 306.75 694.64 301.27L694.64 301.27Q694.64 295.78 696.59 292.01Q698.53 288.23 701.46 285.87Q704.39 283.50 707.81 282.45Q711.23 281.39 714.19 281.39L714.19 281.39L755.67 281.39L755.67 293.58L714.19 293.58Q710.72 293.58 708.77 295.69Q706.83 297.80 706.83 301.27L706.83 301.27Q706.83 304.78 708.77 306.82Q710.72 308.86 714.19 308.86L714.19 308.86L742.22 308.86L742.31 308.86Q744.28 308.91 746.48 309.40Q748.69 309.89 750.87 310.92Q753.05 311.95 755.02 313.52Q756.98 315.09 758.51 317.30Q760.03 319.50 760.92 322.36Q761.81 325.22 761.81 328.83Z" fill="#FF6B35"/>
</svg>