<?xml version="1.0" encoding="UTF-8"?>
<svg xmlns="http://www.w3.org/2000/svg" 
     viewBox="0 0 400 144" 
     width="400" 
     height="144">
  <title>AEGIS Logo</title>
  <path d="M105.41 44.53L105.41 105.61L93.22 105.61L93.22 89.11L50.38 89.11L50.38 105.61L38.19 105.61L38.19 72Q38.19 64.64 40.72 58.45Q43.25 52.27 47.75 47.81Q52.25 43.36 58.39 40.88Q64.53 38.39 71.80 38.39L71.80 38.39L99.27 38.39Q100.53 38.39 101.66 38.86Q102.78 39.33 103.63 40.17Q104.47 41.02 104.94 42.14Q105.41 43.27 105.41 44.53L105.41 44.53ZM50.38 72L50.38 76.92L93.22 76.92L93.22 50.58L71.80 50.58Q71.23 50.58 69.43 50.74Q67.63 50.91 65.26 51.56Q62.89 52.22 60.27 53.58Q57.64 54.94 55.44 57.33Q53.23 59.72 51.80 63.30Q50.38 66.89 50.38 72L50.38 72ZM174.83 65.86L174.83 78.14L136.34 78.14L136.34 65.86L174.83 65.86ZM180.31 93.42L180.31 105.61L136.34 105.61Q133.81 105.61 130.81 104.72Q127.81 103.83 125.26 101.79Q122.70 99.75 120.99 96.49Q119.28 93.23 119.28 88.50L119.28 88.50L119.28 44.53Q119.28 43.27 119.75 42.14Q120.22 41.02 121.04 40.17Q121.86 39.33 122.98 38.86Q124.11 38.39 125.42 38.39L125.42 38.39L180.31 38.39L180.31 50.58L131.47 50.58L131.47 88.50Q131.47 90.89 132.73 92.16Q134 93.42 136.44 93.42L136.44 93.42L180.31 93.42ZM257.98 72L257.98 99.47Q257.98 100.78 257.52 101.91Q257.05 103.03 256.23 103.85Q255.41 104.67 254.28 105.14Q253.16 105.61 251.84 105.61L251.84 105.61L207.88 105.61Q206.19 105.61 204.24 105.21Q202.30 104.81 200.40 103.97Q198.50 103.13 196.77 101.79Q195.03 100.45 193.70 98.55Q192.36 96.66 191.56 94.15Q190.77 91.64 190.77 88.50L190.77 88.50L190.77 55.50Q190.77 53.81 191.16 51.87Q191.56 49.92 192.41 48.02Q193.25 46.13 194.61 44.39Q195.97 42.66 197.87 41.32Q199.77 39.98 202.25 39.19Q204.73 38.39 207.88 38.39L207.88 38.39L257.42 38.39L257.42 50.58L207.88 50.58Q205.48 50.58 204.22 51.84Q202.95 53.11 202.95 55.59L202.95 55.59L202.95 88.50Q202.95 90.84 204.24 92.13Q205.53 93.42 207.88 93.42L207.88 93.42L245.80 93.42L245.80 78.14L213.36 78.14L213.36 65.86L251.84 65.86Q253.16 65.86 254.28 66.35Q255.41 66.84 256.23 67.69Q257.05 68.53 257.52 69.63Q257.98 70.73 257.98 72L257.98 72ZM282.97 38.39L282.97 105.61L270.78 105.61L270.78 38.39L282.97 38.39ZM361.81 85.83L361.81 85.83Q361.81 89.44 360.90 92.32Q359.98 95.20 358.48 97.41Q356.98 99.61 354.97 101.16Q352.95 102.70 350.80 103.69Q348.64 104.67 346.41 105.14Q344.19 105.61 342.22 105.61L342.22 105.61L295.20 105.61L295.20 93.42L342.22 93.42Q345.73 93.42 347.68 91.36Q349.63 89.30 349.63 85.83L349.63 85.83Q349.63 84.14 349.11 82.73Q348.59 81.33 347.63 80.30Q346.67 79.27 345.29 78.70Q343.91 78.14 342.22 78.14L342.22 78.14L314.19 78.14Q311.23 78.14 307.81 77.09Q304.39 76.03 301.46 73.69Q298.53 71.34 296.59 67.55Q294.64 63.75 294.64 58.27L294.64 58.27Q294.64 52.78 296.59 49.01Q298.53 45.23 301.46 42.87Q304.39 40.50 307.81 39.45Q311.23 38.39 314.19 38.39L314.19 38.39L355.67 38.39L355.67 50.58L314.19 50.58Q310.72 50.58 308.77 52.69Q306.83 54.80 306.83 58.27L306.83 58.27Q306.83 61.78 308.77 63.82Q310.72 65.86 314.19 65.86L314.19 65.86L342.22 65.86L342.31 65.86Q344.28 65.91 346.48 66.40Q348.69 66.89 350.87 67.92Q353.05 68.95 355.02 70.52Q356.98 72.09 358.51 74.30Q360.03 76.50 360.92 79.36Q361.81 82.22 361.81 85.83Z" fill="#FFFFFF"/>
</svg>